<svg width="720" height="720" xmlns="http://www.w3.org/2000/svg" xmlns:xlink="http://www.w3.org/1999/xlink" overflow="hidden"><defs><clipPath id="clip0"><rect x="0" y="0" width="720" height="720"/></clipPath></defs><g clip-path="url(#clip0)"><rect x="0" y="0" width="720" height="720" fill="#494449"/><path d="M40.5001 450.5C40.5001 317.952 147.952 210.5 280.5 210.5 413.048 210.5 520.5 317.952 520.5 450.5 520.5 583.048 413.048 690.5 280.5 690.5 147.952 690.5 40.5001 583.048 40.5001 450.5ZM160.5 450.5C160.5 516.774 214.226 570.5 280.5 570.5 346.774 570.5 400.5 516.774 400.5 450.5 400.5 384.226 346.774 330.5 280.5 330.5 214.226 330.5 160.5 384.226 160.5 450.5Z" stroke="#F2F2F2" stroke-width="1.33333" stroke-miterlimit="8" fill="#F9D7CE" fill-rule="evenodd"/><path d="M280.5 210.5C390.628 210.5 486.624 285.451 513.334 392.292L485.287 399.303C461.794 305.333 377.362 239.41 280.5 239.41Z" stroke="#FDF8F2" stroke-width="1.33333" stroke-miterlimit="8" fill="#D18310" fill-rule="evenodd"/><path d="M487.846 569.667C432.782 665.041 319.874 710.7 213.993 680.411L221.944 652.616C315.071 679.256 414.378 639.097 462.809 555.211Z" stroke="#FDF8F2" stroke-width="1.33333" stroke-miterlimit="8" fill="#D18310" fill-rule="evenodd"/><path d="M45.2261 499.479C32.7979 440.903 42.7157 379.796 73.0322 328.158L95.4139 341.298C68.3759 387.352 59.5306 441.85 70.6148 494.092Z" stroke="#FDF8F2" stroke-width="1.33333" stroke-miterlimit="8" fill="#D18310" fill-rule="evenodd"/><path d="M280.5 306.5C291.926 306.5 303.312 307.86 314.416 310.551L308.706 334.116C299.471 331.878 290.002 330.747 280.5 330.747Z" stroke="#FDF8F2" stroke-width="1.33333" stroke-miterlimit="8" fill="#D33A8C" fill-rule="evenodd"/><path d="M360.903 330.542C377.255 341.647 391.146 356.001 401.71 372.708L380.749 385.962C372.004 372.132 360.506 360.25 346.97 351.057Z" stroke="#FDF8F2" stroke-width="1.33333" stroke-miterlimit="8" fill="#D33A8C" fill-rule="evenodd"/><path d="M249.164 590.326C238.568 588.003 228.268 584.491 218.461 579.855L228.545 558.522C236.745 562.398 245.357 565.335 254.216 567.278Z" stroke="#FDF8F2" stroke-width="1.33333" stroke-miterlimit="8" fill="#D33A8C" fill-rule="evenodd"/><path d="M280.5 258.5C325.832 258.5 369.703 274.54 404.344 303.78L387.662 323.544C357.687 298.242 319.726 284.363 280.5 284.363Z" stroke="#FDF8F2" stroke-width="1.33333" stroke-miterlimit="8" fill="#F6CA8A" fill-rule="evenodd"/><path d="M452.95 366.286C499 461.803 458.898 576.566 363.381 622.616 357.017 625.685 350.488 628.399 343.824 630.748L335.462 607.023C422.367 576.392 467.987 481.11 437.356 394.204 435.315 388.414 432.956 382.74 430.29 377.21Z" stroke="#FDF8F2" stroke-width="1.33333" stroke-miterlimit="8" fill="#F6CA8A" fill-rule="evenodd"/><path d="M97.3771 508.937C64.6433 408.077 119.87 299.778 220.73 267.044 227.45 264.863 234.286 263.054 241.205 261.627L246.288 286.264C156.043 304.882 97.9785 393.134 116.597 483.379 117.838 489.392 119.409 495.332 121.304 501.171Z" stroke="#FDF8F2" stroke-width="1.33333" stroke-miterlimit="8" fill="#F6CA8A" fill-rule="evenodd"/><path d="M0 0 0.000104987 194" stroke="#FDF8F2" stroke-width="2" stroke-miterlimit="8" fill="none" fill-rule="evenodd" transform="matrix(1 0 0 -1 280 329)"/><text fill="#8497B0" font-family="Inter Tight,Inter Tight_MSFontService,sans-serif" font-weight="400" font-size="16" transform="translate(284.267 154)">TRACK START</text><path d="M288.5 165.167 399.637 165.167 399.637 165.833 288.5 165.833ZM398.304 161.5 406.304 165.5 398.304 169.5Z" fill="#8497B0"/><path d="M158.232 526.535C144.219 504.335 136.54 478.727 136.027 452.48L160.108 452.009C160.535 473.867 166.929 495.192 178.599 513.678Z" stroke="#FDF8F2" stroke-width="1.33333" stroke-miterlimit="8" fill="#D33A8C" fill-rule="evenodd"/><text fill="#FDF8F2" font-family="Inter Tight Black,Inter Tight Black_MSFontService,sans-serif" font-weight="900" font-size="32" transform="translate(60.2811 85)">LIGHT MY FIRE</text><text fill="#D18310" font-family="Inter Tight,Inter Tight_MSFontService,sans-serif" font-weight="400" font-size="19" transform="translate(478.246 245)">Africa</text><text fill="#D18310" font-family="Inter Tight,Inter Tight_MSFontService,sans-serif" font-weight="400" font-size="19" transform="translate(528.913 245)">-</text><text fill="#D18310" font-family="Inter Tight,Inter Tight_MSFontService,sans-serif" font-style="italic" font-weight="400" font-size="19" transform="translate(540.913 245)">Light My Fire</text><text fill="#D33A8C" font-family="Inter Tight,Inter Tight_MSFontService,sans-serif" font-weight="400" font-size="19" transform="translate(478.246 302)">Mantronix</text><text fill="#D33A8C" font-family="Inter Tight,Inter Tight_MSFontService,sans-serif" font-weight="400" font-size="19" transform="translate(562.913 302)">-</text><text fill="#D33A8C" font-family="Inter Tight,Inter Tight_MSFontService,sans-serif" font-style="italic" font-weight="400" font-size="19" transform="translate(574.913 302)">King of the Beats</text><text fill="#F6CA8A" font-family="Inter Tight,Inter Tight_MSFontService,sans-serif" font-weight="400" font-size="19" transform="translate(478.246 273)">James Brown</text><text fill="#F6CA8A" font-family="Inter Tight,Inter Tight_MSFontService,sans-serif" font-weight="400" font-size="19" transform="translate(591.913 273)">–</text><text fill="#F6CA8A" font-family="Inter Tight,Inter Tight_MSFontService,sans-serif" font-style="italic" font-weight="400" font-size="19" transform="translate(605.579 273)">My Thang</text><text fill="#F9D7CE" font-family="Inter Tight,Inter Tight_MSFontService,sans-serif" font-weight="400" font-size="19" transform="translate(478.246 216)">Africa</text><text fill="#F9D7CE" font-family="Inter Tight,Inter Tight_MSFontService,sans-serif" font-weight="400" font-size="19" transform="translate(528.913 216)">-</text><text fill="#F9D7CE" font-family="Inter Tight,Inter Tight_MSFontService,sans-serif" font-style="italic" font-weight="400" font-size="19" transform="translate(540.913 216)">Light My Fire</text></g></svg>